# xmcd
#
# Track frame offsets:
#        150
#        17365
#        35640
#        51832
#        69867
#        89747
#        112122
#        131480
#        146095
#        162080
#        178955
#
# Disc length: 2707 seconds
#
# Revision: 7
# Processed by: cddbd v1.5.1PL0 Copyright (c) Steve Scherf et al.
# Submitted via: ExactAudioCopy v0.95a5
#
DISCID=9a0a910b
DTITLE=Belly - King
DYEAR=1995
DGENRE=
TTITLE0=Puberty
TTITLE1=Seal My Fate
TTITLE2=Red
TTITLE3=Silverfish
TTITLE4=Super-Connected
TTITLE5=The Bees
TTITLE6=King
TTITLE7=Now They'll Sleep
TTITLE8=Untitled And Unsung
TTITLE9=L'il Ennio
TTITLE10=Judas My Heart
EXTD=
EXTT0=
EXTT1=
EXTT2=
EXTT3=
EXTT4=
EXTT5=
EXTT6=
EXTT7=
EXTT8=
EXTT9=
EXTT10=
PLAYORDER=
